# xmcd
#
# Track frame offsets:
#	150
#	2533
#	21406
#	36411
#	45098
#	55347
#	69525
#	93797
#	111252
#	124869
#	135097
#	157636
#	177312
#	183658
#	195681
#	214774
#	226660
#	236217
#	250647
#	254250
#
# Disc length: 3670 seconds
#
# Revision: 1
# Processed by: cddbd v1.5.2PL0 Copyright (c) Steve Scherf et al.
# Submitted via: audiograbber 1.83.01
#
DISCID=010e5414
DTITLE=Wood-Land - Stone Circle
DYEAR=2009
DGENRE=Noise
TTITLE0=A Body Of Evidence
TTITLE1=This Is Our Richness
TTITLE2=Tapping Glass Room
TTITLE3=Towhee (Deadfolk Remix)
TTITLE4=Temple Dust/In The Light
TTITLE5=Land Of Lonesome Limbo II
TTITLE6=Stone Circle
TTITLE7=Spirit Bridge
TTITLE8=Kicking Stone
TTITLE9=Rippling Through Time
TTITLE10=Return To Lost Cottage
TTITLE11=Revolving Around Inside
TTITLE12=Emergency Evacuation
TTITLE13=In Between Mountains
TTITLE14=Transcending Treasure
TTITLE15=Breathing Room
TTITLE16=Tranquil Chariot
TTITLE17=Told By Tomahawk (For: Brian Grainger)
TTITLE18=Wounded Warrior
TTITLE19=Fall In Soft Light
EXTD=
EXTT0=
EXTT1=
EXTT2=
EXTT3=
EXTT4=
EXTT5=
EXTT6=
EXTT7=
EXTT8=
EXTT9=
EXTT10=
EXTT11=
EXTT12=
EXTT13=
EXTT14=
EXTT15=
EXTT16=
EXTT17=
EXTT18=
EXTT19=
PLAYORDER=
